<svg xmlns="http://www.w3.org/2000/svg" version="1.1" xmlns:xlink="http://www.w3.org/1999/xlink" xmlns:svgjs="http://svgjs.dev/svgjs" viewBox="0 0 800 800"><defs><filter id="uuunion-blur" x="-100%" y="-100%" width="400%" height="400%" color-interpolation-filters="sRGB">
        <feGaussianBlur in="SourceGraphic" stdDeviation="0 0" result="blur"></feGaussianBlur>
        <feDropShadow stdDeviation="12.307692307692308" in="blur" dx="10" dy="10" flood-color="hsl(316, 73%, 52%)" flood-opacity="0.25" x="0%" y="0%" width="100%" height="100%"></feDropShadow>
      </filter><filter id="uuunion-blur2" x="-100%" y="-100%" width="400%" height="400%" color-interpolation-filters="sRGB">
        <feGaussianBlur in="SourceGraphic" stdDeviation="0 0" result="blur"></feGaussianBlur>
        <feDropShadow stdDeviation="12.307692307692308" in="blur" dx="-10" dy="-10" flood-color="hsl(316, 73%, 52%)" flood-opacity="0.25" x="0%" y="0%" width="100%" height="100%"></feDropShadow>
      </filter><linearGradient gradientTransform="rotate(0, 0.5, 0.5)" x1="50%" y1="0%" x2="50%" y2="100%" id="uuunion-grad"><stop stop-color="hsl(37, 99%, 67%)" offset="10%"></stop><stop stop-color="hsl(316, 73%, 52%)" offset="90%"></stop></linearGradient><linearGradient gradientTransform="rotate(135, 0.5, 0.5)" x1="50%" y1="0%" x2="50%" y2="100%" id="uuunion-grad2"><stop stop-color="hsl(37, 99%, 67%)" offset="25%"></stop><stop stop-color="hsl(316, 73%, 52%)" offset="100%"></stop></linearGradient><linearGradient gradientTransform="rotate(333, 0.5, 0.5)" x1="50%" y1="0%" x2="50%" y2="100%" id="uuunion-grad3"><stop stop-color="hsl(37, 99%, 67%)" offset="0%"></stop><stop stop-color="hsl(316, 73%, 52%)" offset="75%"></stop></linearGradient></defs><path d="M-79.21 -77.56Q-64.49 -75.6 -49.77 -73.9 -35.05 -72.56 -20.33 -71.65 -5.61 -71.22 9.1 -71.31 23.82 -71.9 38.54 -72.96 53.26 -74.44 67.98 -76.23 82.7 -78.25 97.42 -80.37 112.14 -82.46 126.86 -84.41 141.59 -86.11 156.31 -87.45 171.03 -88.35 185.75 -88.77 200.47 -88.68 215.19 -88.08 229.91 -87.01 244.63 -85.53 259.35 -83.73 274.07 -81.71 288.79 -79.59 303.51 -77.5 318.23 -75.55 332.95 -73.86 347.67 -72.53 362.4 -71.63 377.12 -71.22 391.84 -71.32 406.56 -71.93 421.28 -73 436 -74.49 450.72 -76.29 465.44 -78.31 480.16 -80.43 494.88 -82.52 509.6 -84.47 524.32 -86.15 539.04 -87.48 553.76 -88.37 568.48 -88.77 583.21 -88.67 597.93 -88.05 612.65 -86.97 627.37 -85.48 642.09 -83.67 656.81 -81.65 671.53 -79.53 686.25 -77.44 700.97 -75.5 715.69 -73.81 730.41 -72.49 745.13 -71.61 759.85 -71.21 774.57 -71.33 789.3 -71.95 804.02 -73.04 818.74 -74.53 833.46 -76.35 852.73 -71.94 856.02 -50.52 859.34 -35.53 866.62 -20.54 876.46 -5.55 886.98 9.42 896.16 24.41 902.25 39.4 904.07 54.38 901.28 69.37 894.42 84.36 884.79 99.35 874.25 114.33 864.8 129.32 858.27 144.31 855.9 159.3 858.14 174.28 864.56 189.27 873.94 204.26 884.49 219.25 894.17 234.23 901.13 249.22 904.05 264.21 902.36 279.19 896.39 294.18 887.28 309.17 876.77 324.16 866.88 339.14 859.5 354.13 856.05 369.12 857.18 384.11 862.68 399.09 871.49 414.08 881.94 429.07 892.01 444.06 899.78 459.04 903.76 474.03 903.19 489.02 898.18 504 889.69 518.99 879.34 533.98 869.11 548.97 860.97 563.95 856.48 578.94 856.48 593.93 860.99 608.92 869.14 623.9 879.37 638.89 889.72 653.88 898.2 668.87 903.2 683.85 903.76 698.84 899.76 713.83 891.98 728.81 881.91 743.8 871.46 758.79 862.66 773.78 857.17 788.76 856.05 803.75 859.52 818.74 866.91 833.73 876.81 848.71 887.31 863.7 896.42 878.69 881.15 884.28 865.88 889.61 850.61 894.39 835.34 898.33 820.07 901.2 804.81 902.84 789.54 903.14 774.27 902.1 759 899.77 743.73 896.29 728.46 891.86 713.2 886.73 697.93 881.22 682.66 875.63 667.39 870.3 652.12 865.53 636.85 861.61 621.59 858.75 606.32 857.14 591.05 856.85 575.78 857.91 560.51 860.26 545.25 863.76 529.98 868.2 514.71 873.33 499.44 878.85 484.17 884.44 468.9 889.76 453.64 894.52 438.37 898.43 423.1 901.27 407.83 902.87 392.56 903.13 377.29 902.05 362.03 899.68 346.76 896.17 331.49 891.71 316.22 886.58 300.95 881.05 285.68 875.47 270.42 870.15 255.15 865.4 239.88 861.51 224.61 858.69 209.34 857.11 194.07 856.86 178.81 857.97 163.54 860.35 148.27 863.88 133 868.35 117.73 873.49 102.46 879.02 87.2 884.6 71.93 889.91 56.66 894.65 41.39 898.53 26.12 901.33 10.86 902.89 -4.4 903.12 -19.67 902 -34.94 899.6 -50.21 896.05 -65.48 891.57 -80.74 886.42 -80.33 871.35 -79.85 856.29 -79.4 841.23 -79.06 826.17 -78.9 811.11 -78.95 796.04 -79.2 780.98 -79.61 765.92 -80.08 750.86 -80.54 735.79 -80.9 720.73 -81.08 705.67 -81.05 690.61 -80.83 675.55 -80.44 660.48 -79.97 645.42 -79.5 630.36 -79.13 615.3 -78.92 600.23 -78.92 585.17 -79.13 570.11 -79.5 555.05 -79.96 539.98 -80.44 524.92 -80.83 509.86 -81.05 494.8 -81.08 479.74 -80.9 464.67 -80.54 449.61 -80.08 434.55 -79.61 419.49 -79.2 404.42 -78.95 389.36 -78.9 374.3 -79.06 359.24 -79.4 344.17 -79.85 329.11 -80.33 314.05 -80.74 298.99 -81.02 283.93 -81.09 268.86 -80.96 253.8 -80.64 238.74 -80.2 223.68 -79.72 208.61 -79.29 193.55 -79 178.49 -78.9 163.43 -79 148.37 -79.3 133.3 -79.73 118.24 -80.21 103.18 -80.65 88.12 -80.97 73.05 -81.09 57.99 -81.01 42.93 -80.73 27.87 -80.31 12.8 -79.83 -2.25 -79.38 -17.31 -79.05 -32.37 -78.9 -47.43 -78.96 -62.5 -79.21 -77.56" fill="url(#uuunion-grad)"></path><path d="M-79.21 -77.56Q-78.96 -62.5 -78.9 -47.43 -79.05 -32.37 -79.38 -17.31 -79.83 -2.25 -80.31 12.8 -80.73 27.87 -81.01 42.93 -81.09 57.99 -80.97 73.05 -80.65 88.12 -80.21 103.18 -79.73 118.24 -79.3 133.3 -79 148.37 -78.9 163.43 -79 178.49 -79.29 193.55 -79.72 208.61 -80.2 223.68 -80.64 238.74 -80.96 253.8 -81.09 268.86 -81.02 283.93 -80.74 298.99 -80.33 314.05 -79.85 329.11 -79.4 344.17 -79.06 359.24 -78.9 374.3 -78.95 389.36 -79.2 404.42 -69.39 406.84 -59.58 409.07 -49.77 411.07 -39.96 412.78 -30.15 414.16 -20.34 415.17 -1.94 415.94 1.23 415.99 13.3 409.22 25.35 401.84 37.41 393.9 49.5 385.46 61.67 376.64 73.95 367.53 86.36 358.25 98.93 348.93 111.67 339.68 124.59 330.64 137.69 321.91 150.94 313.58 164.34 305.74 177.85 298.44 191.43 291.71 205.04 285.58 218.63 280.02 232.15 275.01 245.54 270.48 258.75 266.36 271.75 262.55 284.48 258.97 296.92 255.49 309.05 252 320.86 248.4 332.35 244.57 343.54 240.42 354.47 235.88 365.16 230.88 375.69 225.37 386.11 219.34 396.49 212.77 406.91 205.7 417.46 198.17 428.2 190.22 439.22 181.93 450.58 173.4 462.34 164.72 474.55 155.98 487.23 147.29 500.4 138.75 514.06 130.44 528.19 122.45 542.74 114.83 557.66 107.65 572.87 100.92 588.29 94.67 603.83 88.88 619.37 83.53 634.8 78.58 650.02 73.96 664.92 69.61 679.39 65.44 693.37 61.37 706.76 57.3 719.53 53.16 731.63 48.85 743.06 44.31 753.84 39.46 764 34.26 773.6 28.66 782.73 22.66 791.49 16.25 800 9.43 789.16 -8.3 781.14 -26.05 778 -43.8 780.56 -61.55 788.16 -79.3 798.82 -97.04 809.79 -114.79 818.22 -132.54 802.99 -132.13 787.76 -132.18 772.53 -132.67 757.3 -133.59 742.07 -134.87 726.84 -136.45 711.6 -138.23 696.37 -140.12 681.14 -142 665.91 -143.76 650.68 -145.3 635.45 -146.54 620.22 -147.41 604.99 -147.85 589.76 -147.83 574.53 -147.37 559.3 -146.48 544.07 -145.21 528.84 -143.65 513.61 -141.88 498.38 -140 483.15 -138.12 467.92 -136.34 452.69 -134.78 437.46 -133.52 422.23 -132.63 407 -132.16 391.77 -132.14 376.54 -132.58 361.31 -133.44 346.08 -134.68 330.85 -136.23 315.62 -137.99 300.39 -139.87 285.16 -141.75 269.92 -143.53 254.69 -145.11 239.46 -146.4 224.23 -147.32 209 -147.81 193.77 -147.86 178.54 -147.45 163.31 -146.62 148.08 -145.4 132.85 -143.87 117.62 -142.12 102.39 -140.25 87.16 -138.36 71.93 -136.57 56.7 -134.97 41.47 -133.67 26.24 -132.72 11.01 -132.2 -4.21 -132.12 -19.44 -132.5 -34.67 -133.3 -49.9 -134.5 -65.13 -136 -80.36 -137.74 -95.59 -139.61 -110.82 -141.5 -126.05 -143.3 -135.47 -131.33 -117.19 -112.59 -107.51 -103.9 -97.96 -95.15 -88.52 -86.36 -79.21 -77.56" fill="url(#uuunion-grad2)" filter="url(#uuunion-blur)"></path><path d="M784.19 415.1Q794 414.05 803.81 412.64 813.62 410.9 823.43 408.88 833.24 406.63 843.06 404.2 852.87 401.67 862.68 399.09 871.49 414.08 881.94 429.07 892.01 444.06 899.78 459.04 903.76 474.03 903.19 489.02 898.18 504 889.69 518.99 879.34 533.98 869.11 548.97 860.97 563.95 856.48 578.94 856.48 593.93 860.99 608.92 869.14 623.9 879.37 638.89 889.72 653.88 898.2 668.87 903.2 683.85 903.76 698.84 899.76 713.83 891.98 728.81 881.91 743.8 871.46 758.79 862.66 773.78 857.17 788.76 856.05 803.75 859.52 818.74 866.91 833.73 876.81 848.71 887.31 863.7 896.42 878.69 882.4 883.82 868.39 888.77 854.38 893.28 840.37 897.14 826.36 900.16 812.34 902.19 798.33 903.13 784.32 902.94 770.31 901.62 756.3 899.23 742.29 895.91 728.27 891.8 714.26 887.11 700.25 882.07 686.24 876.93 672.23 871.94 658.21 867.35 644.2 863.38 630.19 860.22 616.18 858.03 602.17 856.93 588.16 856.95 574.14 858.11 560.13 860.34 546.12 863.53 532.11 867.54 518.1 872.15 504.08 877.15 490.07 882.29 476.06 887.32 462.05 891.99 448.04 896.07 434.03 899.36 420.01 901.7 406 902.97 391.99 903.12 377.98 902.13 363.97 900.05 349.95 896.99 335.94 893.1 321.93 888.56 307.92 883.6 293.91 878.47 279.9 873.41 265.88 868.67 251.87 864.49 237.86 861.07 223.85 858.58 209.84 857.14 195.82 856.82 181.81 857.64 167.8 859.56 153.79 862.48 139.78 866.26 125.76 870.72 111.75 875.63 97.74 880.75 83.73 885.84 69.72 890.64 55.71 894.92 41.69 898.46 27.68 901.1 6.55 897.87 -0.84 882.89 -1.12 872.74 -1.4 862.59 -1.64 852.44 -1.82 842.29 -1.71 827.07 -0.99 822 11.2 815.21 23.47 807.56 35.84 799.11 48.33 789.96 60.96 780.23 73.74 770.07 86.67 759.64 99.75 749.1 112.95 738.64 126.26 728.42 139.64 718.61 153.05 709.33 166.46 700.72 179.81 692.85 193.05 685.79 206.16 679.57 219.07 674.17 231.76 669.55 244.2 665.64 256.37 662.34 268.26 659.52 279.88 657.04 291.23 654.75 302.35 652.48 313.27 650.08 324.05 647.38 334.74 644.24 345.41 640.56 356.12 636.22 366.96 631.16 377.98 625.33 389.27 618.73 400.87 611.37 412.84 603.32 425.22 594.64 438.04 585.45 451.3 575.86 465 566.03 479.12 556.08 493.62 546.18 508.44 536.47 523.51 527.09 538.75 518.16 554.06 509.79 569.36 502.06 584.53 495.01 599.48 488.67 614.11 483.05 628.32 478.1 642.05 473.77 655.23 469.98 667.81 466.61 679.77 463.55 691.11 460.66 701.84 457.81 712.01 454.86 721.68 451.68 730.94 448.14 739.88 444.14 748.62 439.6 757.29 434.45 766.02 428.65 779.56 418.64 784.19 415.1" fill="url(#uuunion-grad3)" filter="url(#uuunion-blur2)"></path></svg>